<?xml version="1.0" encoding="utf-8"?>
<!-- Generator: Adobe Illustrator 23.0.1, SVG Export Plug-In . SVG Version: 6.00 Build 0)  -->
<svg version="1.1" id="Layer_1" xmlns="http://www.w3.org/2000/svg" xmlns:xlink="http://www.w3.org/1999/xlink" x="0px" y="0px"
	 viewBox="0 0 1000 1000" style="enable-background:new 0 0 1000 1000;" xml:space="preserve">
<style type="text/css">
	.st0{fill:#474747;}
</style>
<g transform="matrix(.15440468 0 0 .15440468 133.64447 95.021646)">
	<path class="st0" d="M-212.3,3172.5h-511.5V2083.8H-240c274.8,0,392.3,117.5,392.3,295.5c0,122.7-83,209.1-200.5,228.1
		c131.3,24.2,233.3,110.6,233.3,266.1C185.1,3061.9,41.7,3172.5-212.3,3172.5z M-513,2536.5h259.2c129.6,0,184.9-57,184.9-138.3
		c0-81.2-55.3-140-184.9-140H-513V2536.5z M-513,2700.7v297.2h276.5c134.8,0,200.5-57,200.5-146.9c0-91.6-65.7-150.3-200.5-150.3
		H-513z"/>
	<path class="st0" d="M959.7,2987.6c0,39.7,20.7,58.8,53.6,58.8c20.7,0,41.5-5.2,63.9-15.6v110.6c-32.8,25.9-74.3,48.4-143.4,48.4
		c-86.4,0-152.1-55.3-167.6-146.9c-43.2,89.9-140,148.6-266.1,148.6c-145.1,0-241.9-77.8-241.9-209.1
		c0-145.2,114.1-205.7,290.3-238.5l209.1-39.8v-22.5c0-84.7-44.9-136.5-133-136.5c-86.4,0-133.1,51.9-150.3,126.1L285.7,2654
		c25.9-155.5,145.2-264.4,347.3-264.4c197,0,326.6,93.3,326.6,293.8V2987.6z M757.5,2816.5l-143.4,29.4c-95,19-153.8,43.2-153.8,114
		c0,53.6,38,93.3,105.4,93.3c108.9,0,191.8-81.2,191.8-210.8V2816.5z"/>
	<path class="st0" d="M2658.5,2918.4c-38,172.8-172.8,274.8-368.1,274.8c-235,0-404.4-150.4-404.4-390.5
		c0-240.2,171.1-413,399.2-413c248.8,0,376.7,172.8,376.7,380.2v65.7h-572c6.9,124.4,95.1,200.5,207.4,200.5
		c102,0,164.2-44.9,193.6-134.8L2658.5,2918.4z M2459.8,2726.6c-3.5-98.5-60.5-184.9-176.3-184.9c-114,0-178,83-190.1,184.9H2459.8z
		"/>
	<path class="st0" d="M3308.7,2614.3c-39.8-22.5-74.3-32.8-124.4-32.8c-107.2,0-179.7,76-179.7,214.3v376.7h-207.4v-762.1h207.4
		v145.2c27.6-86.4,107.2-165.9,212.6-165.9c46.7,0,84.7,12.1,107.2,31.1L3308.7,2614.3z"/>
	<path class="st0" d="M3411.5,2083.8h212.6V2286h-212.6V2083.8z M3622.4,2410.4v762.1H3415v-762.1L3622.4,2410.4z"/>
	<path class="st0" d="M4000.5,3172.5h-207.4v-762.1h207.4v124.4c38-86.4,134.8-145.2,248.8-145.2c203.9,0,278.2,138.3,278.2,307.6
		v475.2h-207.4v-433.8c0-117.5-46.7-184.9-148.6-184.9c-105.4,0-171,83-171,210.8V3172.5z"/>
	<path class="st0" d="M5351.8,2987.6c0,39.7,20.7,58.8,53.6,58.8c20.7,0,41.5-5.2,63.9-15.6v110.6c-32.8,25.9-74.3,48.4-143.5,48.4
		c-86.4,0-152.1-55.3-167.6-146.9c-43.2,89.9-140,148.6-266.1,148.6c-145.1,0-241.9-77.8-241.9-209.1c0-145.2,114-205.7,290.3-238.5
		l209.1-39.8v-22.5c0-84.7-44.9-136.5-133.1-136.5c-86.4,0-133.1,51.9-150.3,126.1l-188.4-17.3c25.9-155.5,145.1-264.4,347.3-264.4
		c197,0,326.6,93.3,326.6,293.8L5351.8,2987.6z M5149.5,2816.5l-143.4,29.4c-95.1,19-153.8,43.2-153.8,114
		c0,53.6,38,93.3,105.4,93.3c108.9,0,191.8-81.2,191.8-210.8V2816.5z"/>
	<path class="st0" d="M1167.5,3172.5h135.3l128-419.4v-152.2l-263.2,100.6L1167.5,3172.5z"/>
	<path class="st0" d="M1167.5,2603v-137.8l180.2,68.9L1167.5,2603z"/>
	<path class="st0" d="M1605,2534.1l180.2,68.9v-137.8L1605,2534.1z"/>
	<path class="st0" d="M1521.9,2052.5v415l263.2-100.7v-314.3H1521.9z"/>
	<path class="st0" d="M1167.5,2052.5h263.2v415l-263.2-100.7V2052.5z"/>
	<path class="st0" d="M1521.9,2600.8l263.2,100.6v471h-135.3l-128-419.4V2600.8z"/>
</g>
</svg>
